<svg viewBox="0 0 100 100" xmlns="http://www.w3.org/2000/svg">
  <!-- Yellow background triangle -->
  <polygon points="50,10 90,85 10,85" fill="#fbbf24"/>
  <!-- Red triangle -->
  <polygon points="50,20 75,70 25,70" fill="#dc2626"/>
  <!-- Green palm fronds -->
  <g stroke="#16a34a" stroke-width="2" fill="none">
    <!-- Center stem -->
    <line x1="50" y1="70" x2="50" y2="35"/>
    <!-- Left fronds -->
    <path d="M45,45 Q35,40 30,35" stroke-width="1.5"/>
    <path d="M45,50 Q30,45 25,40" stroke-width="1.5"/>
    <path d="M45,55 Q28,50 22,45" stroke-width="1.5"/>
    <path d="M45,60 Q25,55 18,50" stroke-width="1.5"/>
    <!-- Right fronds -->
    <path d="M55,45 Q65,40 70,35" stroke-width="1.5"/>
    <path d="M55,50 Q70,45 75,40" stroke-width="1.5"/>
    <path d="M55,55 Q72,50 78,45" stroke-width="1.5"/>
    <path d="M55,60 Q75,55 82,50" stroke-width="1.5"/>
  </g>
</svg>
