<svg width="800" height="120" viewBox="0 0 800 120" xmlns="http://www.w3.org/2000/svg">
  <!-- Background -->
  <rect width="800" height="120" fill="white"/>
  
  <!-- Logo Container -->
  <g transform="translate(20, 15)">
    <!-- Yellow background -->
    <rect x="0" y="0" width="90" height="90" fill="#fbbf24" rx="8"/>
    <!-- Red triangle -->
    <polygon points="45,22.5 67.5,67.5 22.5,67.5" fill="#dc2626"/>
    <!-- Green palm tree/leaf -->
    <path d="M27 67.5 Q45 52.5 63 67.5" stroke="white" stroke-width="2" fill="none"/>
    <path d="M27 67.5 Q40.5 57.5 45 62.5 Q49.5 57.5 63 67.5" fill="#22c55e"/>
    <path d="M31.5 62.5 Q45 47.5 58.5 62.5" stroke="white" stroke-width="2" fill="none"/>
    <path d="M31.5 62.5 Q42.3 52.5 45 57.5 Q47.7 52.5 58.5 62.5" fill="#22c55e"/>
    <path d="M36 57.5 Q45 42.5 54 57.5" stroke="white" stroke-width="2" fill="none"/>
    <path d="M36 57.5 Q43.2 47.5 45 52.5 Q46.8 47.5 54 57.5" fill="#22c55e"/>
    <!-- Tree trunk -->
    <rect x="42.3" y="67.5" width="5.4" height="10.8" fill="white"/>
  </g>
  
  <!-- Company Information -->
  <g transform="translate(130, 15)">
    <!-- Company Name -->
    <text x="0" y="25" font-family="Arial, sans-serif" font-size="24" font-weight="bold" fill="#dc2626" text-transform="uppercase">
      PT. GLOBAL LESTARI ALAM
    </text>
    
    <!-- Company Type -->
    <text x="0" y="45" font-family="Arial, sans-serif" font-size="13" font-weight="600" fill="#059669" text-transform="uppercase">
      (GENERAL SUPPLIERS &amp; CONTRACTORS)
    </text>
    
    <!-- Address -->
    <text x="0" y="65" font-family="Arial, sans-serif" font-size="11" fill="black">
      Jl. Bandeng No. 20 RT / RW. 004 / 005, Kelurahan Tangerang Tengah, Kec. Marpoyan Damai, Kota Pekanbaru, 28282 Riau Indonesia
    </text>
    
    <!-- Contact Information -->
    <text x="0" y="85" font-family="Arial, sans-serif" font-size="11" fill="black">
      Telp. +62761 40288, Fax. +62761 35923, Email: gla.padang15@gmail.com
    </text>
  </g>
</svg>
